<svg id="Ebene_1" data-name="Ebene 1" xmlns="http://www.w3.org/2000/svg" width="441.32mm" height="194.98mm" viewBox="0 0 1250.98 552.71"><title>grid-vs-flexbox</title><rect x="0.13" y="71.32" width="107.99" height="338.98" fill="#dd0c29" stroke="#000" stroke-miterlimit="10" stroke-width="0.25"/><rect x="125.13" y="71.32" width="107.99" height="338.98" fill="#dd0c29" stroke="#000" stroke-miterlimit="10" stroke-width="0.25"/><rect x="250.13" y="71.32" width="107.99" height="338.98" fill="#dd0c29" stroke="#000" stroke-miterlimit="10" stroke-width="0.25"/><rect x="848.87" y="71.32" width="104.99" height="104.99" fill="#dd0c29"/><rect x="1105.26" y="373.09" width="104.99" height="221.99" transform="translate(2306.12 783.39) rotate(-180)" fill="#dd0c29"/><rect x="858.27" y="373.09" width="230.06" height="104.99" transform="translate(1937.21 666.4) rotate(-180)" fill="#dd0c29"/><rect x="858.27" y="490.08" width="104.99" height="104.99" transform="translate(1812.14 900.39) rotate(-180)" fill="#dd0c29"/><rect x="981.77" y="490.08" width="104.99" height="104.99" transform="translate(2059.13 900.39) rotate(-180)" fill="#dd0c29"/><rect x="979.34" y="256.1" width="231.4" height="104.99" transform="translate(2180.68 432.41) rotate(-180)" fill="#dd0c29"/><line x1="29.88" y1="20.32" x2="328.36" y2="20.32" fill="#dd0c29"/><line x1="47.74" y1="20.32" x2="293.06" y2="20.32" fill="none" stroke="#dd0c29" stroke-miterlimit="10" stroke-width="5"/><circle cx="48.68" cy="20.32" r="18.8" fill="#dd0c29"/><polygon points="328.37 20.32 278.62 40.65 290.42 20.32 278.62 0 328.37 20.32" fill="#dd0c29"/><line x1="875.86" y1="20.32" x2="1174.35" y2="20.32" fill="#dd0c29"/><line x1="893.72" y1="20.32" x2="1139.04" y2="20.32" fill="none" stroke="#dd0c29" stroke-miterlimit="10" stroke-width="5"/><circle cx="894.66" cy="20.32" r="18.8" fill="#dd0c29"/><polygon points="1174.35 20.32 1124.6 40.65 1136.4 20.32 1124.6 0 1174.35 20.32" fill="#dd0c29"/><line x1="1230.66" y1="93.57" x2="1230.66" y2="392.05" fill="#dd0c29"/><line x1="1230.66" y1="111.43" x2="1230.66" y2="356.75" fill="none" stroke="#dd0c29" stroke-miterlimit="10" stroke-width="5"/><circle cx="1230.66" cy="112.37" r="18.8" fill="#dd0c29"/><polygon points="1230.66 392.05 1210.33 342.31 1230.66 354.11 1250.98 342.31 1230.66 392.05" fill="#dd0c29"/><path d="M102.32,679.79h4.42V651.61h-4.42v-2.78H125V656h-3v-4.22h-11.9v12.72h12.34v2.88H110.09v12.38h4.7v2.78H102.32Z" transform="translate(-9.4 -184.78)"/><path d="M131.21,651.52h-4.27v-2.69h7.54v27.46c0,2,.53,3.6,2.74,3.6a7.61,7.61,0,0,0,1.34-.1v2.78a13.69,13.69,0,0,1-1.87.14c-3.17,0-5.47-1.58-5.47-6.19Z" transform="translate(-9.4 -184.78)"/><path d="M154.11,657.85c6.67,0,10.13,5.14,10.13,11.14a13.62,13.62,0,0,1-.14,1.54H145.57c.14,6.19,4.37,9.7,9.36,9.7a11.31,11.31,0,0,0,7.34-2.88l1.49,2.45a13.68,13.68,0,0,1-8.93,3.36,12.2,12.2,0,0,1-12.62-12.62C142.21,662.61,147.58,657.85,154.11,657.85Zm6.72,10.27c-.19-5.09-3.26-7.54-6.82-7.54-4,0-7.54,2.64-8.31,7.54Z" transform="translate(-9.4 -184.78)"/><path d="M167.84,679.89h3.84l6.19-9.84-5.66-8.93h-4.13v-2.69h6.1l4.85,8c.38.62.77,1.39.77,1.39h.1s.34-.72.77-1.44l4.94-7.92h5.86v2.69h-4L181.76,670l6.29,9.84h3.65v2.69H186l-5.42-8.88a13.31,13.31,0,0,1-.82-1.39h-.1a8.86,8.86,0,0,1-.77,1.44l-5.38,8.83h-5.71Z" transform="translate(-9.4 -184.78)"/><path d="M197.31,651.52H193v-2.69h7.58v11.91a13.58,13.58,0,0,1-.14,2h.1a8.94,8.94,0,0,1,8.26-4.9c6.48,0,10.51,5.18,10.51,12.67s-4.56,12.63-10.9,12.63a8.85,8.85,0,0,1-8-4.94h-.1a13.59,13.59,0,0,1,.14,2v2.35h-3.17Zm10.85,28.71c4.27,0,7.82-3.55,7.82-9.7,0-5.9-3.17-9.7-7.68-9.7-4,0-7.82,2.88-7.82,9.75C200.48,675.42,203,680.22,208.16,680.22Z" transform="translate(-9.4 -184.78)"/><path d="M236.48,657.85a12.65,12.65,0,1,1-12.72,12.53A12.5,12.5,0,0,1,236.48,657.85Zm0,22.37a9.53,9.53,0,0,0,9.41-9.84,9.39,9.39,0,1,0-18.77,0A9.52,9.52,0,0,0,236.48,680.22Z" transform="translate(-9.4 -184.78)"/><path d="M252.17,679.89H256L262.2,670l-5.66-8.93h-4.13v-2.69h6.1l4.85,8c.38.62.77,1.39.77,1.39h.1s.34-.72.77-1.44l4.94-7.92h5.86v2.69h-4L266.09,670l6.29,9.84H276v2.69h-5.66l-5.42-8.88a13.31,13.31,0,0,1-.82-1.39H264a8.86,8.86,0,0,1-.77,1.44l-5.38,8.83h-5.71Z" transform="translate(-9.4 -184.78)"/><path d="M941.68,658.25c4.08,0,12.58,1.54,12.58,6.72v3.6H951v-2.69c0-3.31-5.76-4.61-9.22-4.61-7.82,0-13.73,6-13.73,14.11,0,8.4,5.9,14.74,13.92,14.74,2.74,0,9.55-1.06,9.55-4.61v-2.64h3.22v3.6c0,4.9-8.21,6.67-12.86,6.67-10.08,0-17.33-7.87-17.33-17.67A16.83,16.83,0,0,1,941.68,658.25Z" transform="translate(-9.4 -184.78)"/><path d="M963.66,683.17v2.45c0,2.83,3.5,4.46,7.39,4.46,4.37,0,7.54-2.16,7.54-6.1,0-4.42-4.08-6-8.45-7.58s-9-3.46-9-9.36,4.75-8.79,10.27-8.79c4.8,0,9.75,1.87,9.75,5.28v3.6h-3.22v-2.5c0-2.16-3.5-3.31-6.53-3.31-3.84,0-6.82,1.87-6.82,5.47,0,4.08,3.65,5.38,7.73,7,4.9,1.82,9.75,3.7,9.75,9.89,0,6-4.75,9.5-11,9.5-4.85,0-10.61-2.16-10.61-6.77v-3.22Z" transform="translate(-9.4 -184.78)"/><path d="M990.83,683.17v2.45c0,2.83,3.5,4.46,7.39,4.46,4.37,0,7.54-2.16,7.54-6.1,0-4.42-4.08-6-8.45-7.58s-9-3.46-9-9.36,4.75-8.79,10.27-8.79c4.8,0,9.75,1.87,9.75,5.28v3.6h-3.22v-2.5c0-2.16-3.5-3.31-6.53-3.31-3.84,0-6.82,1.87-6.82,5.47,0,4.08,3.65,5.38,7.73,7,4.9,1.82,9.75,3.7,9.75,9.89,0,6-4.75,9.5-11,9.5-4.85,0-10.61-2.16-10.61-6.77v-3.22Z" transform="translate(-9.4 -184.78)"/><path d="M1044.11,658.25c5.81,0,12.72,2.4,12.72,6.63v3.7h-3.22V666c0-3.17-5.19-4.75-9.46-4.75-8.59,0-14.07,6-14.07,14.35s5.62,14.5,14,14.5c3.36,0,10.32-1.06,10.32-4.9V680h-7.06v-2.78h10.23V686c0,5.23-8.45,7.15-13.54,7.15-10.37,0-17.47-7.54-17.47-17.47S1033.6,658.25,1044.11,658.25Z" transform="translate(-9.4 -184.78)"/><path d="M1063,689.89h3.74V672.17a.94.94,0,0,0-1.06-1.06h-3.26v-2.69H1067c2,0,2.93.82,2.93,2.74v1.63a17.31,17.31,0,0,1-.1,1.82h.1c1.2-3.65,3.89-6.43,7.63-6.43a7.37,7.37,0,0,1,1.34.14v3.22a9.36,9.36,0,0,0-1.25-.1c-5.42,0-7.63,6.1-7.63,10.9v7.54h3.74v2.69H1063Z" transform="translate(-9.4 -184.78)"/><path d="M1081.93,689.89H1086V671.12h-4.32v-2.69h7.58v21.46h4.08v2.69h-11.43Zm3.89-31.06h3.7v4.08h-3.7Z" transform="translate(-9.4 -184.78)"/><path d="M1108,667.85a8.69,8.69,0,0,1,7.87,4.7h.1a11.93,11.93,0,0,1-.14-1.87v-9.17h-4.32v-2.69h7.58v30a.94.94,0,0,0,1.06,1.06h2.69v2.69h-4c-2.06,0-2.88-.91-2.88-2.64v-.43a4.78,4.78,0,0,1,.19-1.49h-.1a9,9,0,0,1-8.5,5.14c-6.48,0-10.46-5.18-10.46-12.62C1097.1,672.85,1101.56,667.85,1108,667.85Zm.1,22.37c4,0,7.83-2.88,7.83-9.7,0-4.94-2.5-9.7-7.63-9.7-4.32,0-7.83,3.55-7.83,9.7C1100.46,686.43,1103.58,690.22,1108.09,690.22Z" transform="translate(-9.4 -184.78)"/><path d="M1126.62,685.09h3v1.73c0,2.45,3.5,3.5,6.29,3.5,3.07,0,5.67-1.34,5.67-3.79,0-2.78-3.07-3.74-6.53-5-3.65-1.34-7.49-3-7.49-7.2,0-4.42,4.32-6.43,8.35-6.43,3.26,0,8,1.39,8,4.7v2.78h-3v-1.78c0-1.78-2.4-2.88-4.94-2.88s-5.09,1.15-5.09,3.5c0,2.64,2.93,3.74,6.1,4.9,3.74,1.34,7.87,2.93,7.87,7.25s-3.75,6.82-9.12,6.82c-4.46,0-9.12-2-9.12-5.71Z" transform="translate(-9.4 -184.78)"/><path d="M92.29,719.75a8.62,8.62,0,0,1,8.83,8.69,8.83,8.83,0,1,1-17.67,0A8.61,8.61,0,0,1,92.29,719.75Zm0,14.86c3.07,0,5.59-2.66,5.59-6.17a5.6,5.6,0,1,0-11.18,0C86.69,731.94,89.21,734.6,92.29,734.6Z" transform="translate(-9.4 -184.78)" fill="#dd0c29" stroke="#000" stroke-miterlimit="10" stroke-width="0.25"/><path d="M103.18,734.72h2V722.41h-2V720h5.18l7.18,11a8.4,8.4,0,0,1,.62,1.44h.07a13,13,0,0,1-.1-1.61v-8.42H114V720h7.3v2.38h-2v14.67h-3.14L109,726.15a9.35,9.35,0,0,1-.62-1.44h-.1a10.84,10.84,0,0,1,.12,1.58v8.42h2.11v2.35h-7.3Z" transform="translate(-9.4 -184.78)" fill="#dd0c29" stroke="#000" stroke-miterlimit="10" stroke-width="0.25"/><path d="M123.51,734.72h2V722.41h-2V720h12.65v4.39h-2.69v-1.87h-4.78v4.68h5.62v2.52h-5.62v4.8h5.14v-1.92h2.69v4.44h-13Z" transform="translate(-9.4 -184.78)" fill="#dd0c29" stroke="#000" stroke-miterlimit="10" stroke-width="0.25"/><path d="M144.87,734.72h2V722.41h-2V720h7.37a11.76,11.76,0,0,1,3.55.41c3.31,1,5.52,3.91,5.52,8.11,0,4-2,6.94-5.28,8a11,11,0,0,1-3.77.5h-7.39Zm7.25-.17a7.23,7.23,0,0,0,2.78-.43c1.94-.79,3.17-2.78,3.17-5.57s-1.3-4.85-3.29-5.62a6.9,6.9,0,0,0-2.66-.38h-2.06v12Z" transform="translate(-9.4 -184.78)" fill="#dd0c29" stroke="#000" stroke-miterlimit="10" stroke-width="0.25"/><path d="M163.49,734.72h2V722.41h-2V720h7.25v2.38h-2.06v12.31h2.06v2.35h-7.25Z" transform="translate(-9.4 -184.78)" fill="#dd0c29" stroke="#000" stroke-miterlimit="10" stroke-width="0.25"/><path d="M172.88,734.72h2l1-12.31h-2.06V720h5.54l3.79,9.62a13.13,13.13,0,0,1,.41,1.42h0a11,11,0,0,1,.43-1.42l3.77-9.62h5.54v2.38h-2l1,12.31h2v2.35h-7v-2.35h1.9l-.62-8.59a10.28,10.28,0,0,1,.07-1.58h-.07a12.81,12.81,0,0,1-.41,1.51L185,733.91h-2.69L179,726.06a11,11,0,0,1-.38-1.51h-.1a10.31,10.31,0,0,1,.07,1.58l-.62,8.59h1.92v2.35h-7Z" transform="translate(-9.4 -184.78)" fill="#dd0c29" stroke="#000" stroke-miterlimit="10" stroke-width="0.25"/><path d="M196.44,734.72h2V722.41h-2V720h12.65v4.39h-2.69v-1.87h-4.78v4.68h5.62v2.52h-5.62v4.8h5.14v-1.92h2.69v4.44h-13Z" transform="translate(-9.4 -184.78)" fill="#dd0c29" stroke="#000" stroke-miterlimit="10" stroke-width="0.25"/><path d="M211.8,734.72h2V722.41h-2V720H217l7.18,11a8.4,8.4,0,0,1,.62,1.44h.07a13,13,0,0,1-.1-1.61v-8.42h-2.11V720H230v2.38h-2v14.67h-3.14l-7.18-10.92a9.35,9.35,0,0,1-.62-1.44h-.1a10.84,10.84,0,0,1,.12,1.58v8.42h2.11v2.35h-7.3Z" transform="translate(-9.4 -184.78)" fill="#dd0c29" stroke="#000" stroke-miterlimit="10" stroke-width="0.25"/><path d="M234.94,731.58v1.27c0,1.1,1.39,1.75,3,1.75s3-.74,3-2.11c0-1.73-1.94-2.28-3.91-3-2.28-.86-4.51-1.9-4.51-4.94,0-3.43,2.78-4.75,5.71-4.75,2.69,0,5.4,1,5.4,3V725h-2.86v-1.15c0-.86-1.27-1.32-2.54-1.32s-2.54.58-2.54,1.87c0,1.56,1.58,2.11,3.36,2.78,2.54.91,5.09,1.92,5.09,5.11,0,3.48-2.93,5.09-6.14,5.09-2.83,0-5.86-1.27-5.86-3.84v-1.94Z" transform="translate(-9.4 -184.78)" fill="#dd0c29" stroke="#000" stroke-miterlimit="10" stroke-width="0.25"/><path d="M246.41,734.72h2V722.41h-2V720h7.25v2.38H251.6v12.31h2.06v2.35h-7.25Z" transform="translate(-9.4 -184.78)" fill="#dd0c29" stroke="#000" stroke-miterlimit="10" stroke-width="0.25"/><path d="M264.58,719.75a8.62,8.62,0,0,1,8.83,8.69,8.83,8.83,0,1,1-17.67,0A8.61,8.61,0,0,1,264.58,719.75Zm0,14.86c3.07,0,5.59-2.66,5.59-6.17a5.6,5.6,0,1,0-11.18,0C259,731.94,261.51,734.6,264.58,734.6Z" transform="translate(-9.4 -184.78)" fill="#dd0c29" stroke="#000" stroke-miterlimit="10" stroke-width="0.25"/><path d="M275.48,734.72h2V722.41h-2V720h5.18l7.18,11a8.4,8.4,0,0,1,.62,1.44h.07a13,13,0,0,1-.1-1.61v-8.42h-2.11V720h7.3v2.38h-2v14.67h-3.14l-7.18-10.92a9.35,9.35,0,0,1-.62-1.44h-.1a10.84,10.84,0,0,1,.12,1.58v8.42h2.11v2.35h-7.3Z" transform="translate(-9.4 -184.78)" fill="#dd0c29" stroke="#000" stroke-miterlimit="10" stroke-width="0.25"/><path d="M923.34,734.72h2V722.55h-3.22v2.57H919.5V720h14.93v5.09h-2.66v-2.57h-3.24v12.17h2.06v2.35h-7.25Z" transform="translate(-9.4 -184.78)" fill="#dd0c29" stroke="#000" stroke-miterlimit="10" stroke-width="0.25"/><path d="M935.41,720h6.65v2.38h-2l2.21,9.72a12.27,12.27,0,0,1,.19,1.49h.1a9.79,9.79,0,0,1,.26-1.49L946,720h2.52l3.19,12.1a9.86,9.86,0,0,1,.26,1.49h.1a12.15,12.15,0,0,1,.19-1.49l2.21-9.72h-2V720h6.65v2.38h-1.56L954,737.07h-3.53l-2.86-10.75a10.17,10.17,0,0,1-.26-1.56h-.07a10,10,0,0,1-.26,1.56l-2.86,10.75h-3.53L937,722.41h-1.56Z" transform="translate(-9.4 -184.78)" fill="#dd0c29" stroke="#000" stroke-miterlimit="10" stroke-width="0.25"/><path d="M969.11,719.75a8.61,8.61,0,0,1,8.83,8.69,8.83,8.83,0,1,1-17.67,0A8.61,8.61,0,0,1,969.11,719.75Zm0,14.86c3.07,0,5.59-2.66,5.59-6.17a5.6,5.6,0,1,0-11.18,0C963.52,731.94,966,734.6,969.11,734.6Z" transform="translate(-9.4 -184.78)" fill="#dd0c29" stroke="#000" stroke-miterlimit="10" stroke-width="0.25"/><path d="M986.15,734.72h2V722.41h-2V720h7.37a11.75,11.75,0,0,1,3.55.41c3.31,1,5.52,3.91,5.52,8.11,0,4-2,6.94-5.28,8a11,11,0,0,1-3.77.5h-7.39Zm7.25-.17a7.23,7.23,0,0,0,2.78-.43c1.94-.79,3.17-2.78,3.17-5.57s-1.3-4.85-3.29-5.62a6.9,6.9,0,0,0-2.66-.38h-2.06v12Z" transform="translate(-9.4 -184.78)" fill="#dd0c29" stroke="#000" stroke-miterlimit="10" stroke-width="0.25"/><path d="M1004.77,734.72h2V722.41h-2V720H1012v2.38H1010v12.31H1012v2.35h-7.25Z" transform="translate(-9.4 -184.78)" fill="#dd0c29" stroke="#000" stroke-miterlimit="10" stroke-width="0.25"/><path d="M1014.16,734.72h2l1-12.31h-2.06V720h5.54l3.79,9.62a13.13,13.13,0,0,1,.41,1.42h0a11,11,0,0,1,.43-1.42l3.77-9.62h5.54v2.38h-2l1,12.31h2v2.35h-7v-2.35h1.9l-.62-8.59a10.28,10.28,0,0,1,.07-1.58h-.07a12.85,12.85,0,0,1-.41,1.51l-3.26,7.85h-2.69l-3.26-7.85a11,11,0,0,1-.38-1.51h-.1a10.33,10.33,0,0,1,.07,1.58l-.62,8.59h1.92v2.35h-7Z" transform="translate(-9.4 -184.78)" fill="#dd0c29" stroke="#000" stroke-miterlimit="10" stroke-width="0.25"/><path d="M1037.72,734.72h2V722.41h-2V720h12.65v4.39h-2.69v-1.87h-4.78v4.68h5.62v2.52h-5.62v4.8H1048v-1.92h2.69v4.44h-13Z" transform="translate(-9.4 -184.78)" fill="#dd0c29" stroke="#000" stroke-miterlimit="10" stroke-width="0.25"/><path d="M1053.08,734.72h2V722.41h-2V720h5.18l7.18,11a8.4,8.4,0,0,1,.62,1.44h.07a12.9,12.9,0,0,1-.1-1.61v-8.42h-2.11V720h7.3v2.38h-2v14.67H1066l-7.18-10.92a9.35,9.35,0,0,1-.62-1.44h-.1a10.91,10.91,0,0,1,.12,1.58v8.42h2.11v2.35h-7.3Z" transform="translate(-9.4 -184.78)" fill="#dd0c29" stroke="#000" stroke-miterlimit="10" stroke-width="0.25"/><path d="M1076.22,731.58v1.27c0,1.1,1.39,1.75,3,1.75s3-.74,3-2.11c0-1.73-1.94-2.28-3.91-3-2.28-.86-4.51-1.9-4.51-4.94,0-3.43,2.78-4.75,5.71-4.75,2.69,0,5.4,1,5.4,3V725H1082v-1.15c0-.86-1.27-1.32-2.54-1.32s-2.54.58-2.54,1.87c0,1.56,1.58,2.11,3.36,2.78,2.54.91,5.09,1.92,5.09,5.11,0,3.48-2.93,5.09-6.14,5.09-2.83,0-5.86-1.27-5.86-3.84v-1.94Z" transform="translate(-9.4 -184.78)" fill="#dd0c29" stroke="#000" stroke-miterlimit="10" stroke-width="0.25"/><path d="M1087.69,734.72h2V722.41h-2V720h7.25v2.38h-2.06v12.31h2.06v2.35h-7.25Z" transform="translate(-9.4 -184.78)" fill="#dd0c29" stroke="#000" stroke-miterlimit="10" stroke-width="0.25"/><path d="M1105.86,719.75a8.61,8.61,0,0,1,8.83,8.69,8.83,8.83,0,1,1-17.67,0A8.61,8.61,0,0,1,1105.86,719.75Zm0,14.86c3.07,0,5.59-2.66,5.59-6.17a5.6,5.6,0,1,0-11.18,0C1100.27,731.94,1102.79,734.6,1105.86,734.6Z" transform="translate(-9.4 -184.78)" fill="#dd0c29" stroke="#000" stroke-miterlimit="10" stroke-width="0.25"/><path d="M1116.75,734.72h2V722.41h-2V720h5.18l7.18,11a8.4,8.4,0,0,1,.62,1.44h.07a13,13,0,0,1-.1-1.61v-8.42h-2.11V720h7.3v2.38h-2v14.67h-3.14l-7.18-10.92a9.35,9.35,0,0,1-.62-1.44h-.1a10.77,10.77,0,0,1,.12,1.58v8.42h2.11v2.35h-7.3Z" transform="translate(-9.4 -184.78)" fill="#dd0c29" stroke="#000" stroke-miterlimit="10" stroke-width="0.25"/><path d="M1139.89,731.58v1.27c0,1.1,1.39,1.75,3,1.75s3-.74,3-2.11c0-1.73-1.94-2.28-3.91-3-2.28-.86-4.51-1.9-4.51-4.94,0-3.43,2.78-4.75,5.71-4.75,2.69,0,5.4,1,5.4,3V725h-2.86v-1.15c0-.86-1.27-1.32-2.54-1.32s-2.54.58-2.54,1.87c0,1.56,1.58,2.11,3.36,2.78,2.54.91,5.09,1.92,5.09,5.11,0,3.48-2.93,5.09-6.14,5.09-2.83,0-5.86-1.27-5.86-3.84v-1.94Z" transform="translate(-9.4 -184.78)" fill="#dd0c29" stroke="#000" stroke-miterlimit="10" stroke-width="0.25"/></svg>